<svg width="40" height="40" viewBox="0 0 40 40" fill="none" xmlns="http://www.w3.org/2000/svg">
<path d="M8.75 18.75H33.75C34.0815 18.75 34.3995 18.8817 34.6339 19.1161C34.8683 19.3505 35 19.6685 35 20C35 20.3315 34.8683 20.6495 34.6339 20.8839C34.3995 21.1183 34.0815 21.25 33.75 21.25H8.75C8.41848 21.25 8.10054 21.1183 7.86612 20.8839C7.6317 20.6495 7.5 20.3315 7.5 20C7.5 19.6685 7.6317 19.3505 7.86612 19.1161C8.10054 18.8817 8.41848 18.75 8.75 18.75Z" fill="white"/>
<path d="M9.26729 20L19.6348 30.365C19.8695 30.5997 20.0014 30.9181 20.0014 31.25C20.0014 31.5819 19.8695 31.9003 19.6348 32.135C19.4001 32.3697 19.0817 32.5016 18.7498 32.5016C18.4179 32.5016 18.0995 32.3697 17.8648 32.135L6.61479 20.885C6.49838 20.7689 6.40603 20.631 6.34301 20.4791C6.28 20.3272 6.24756 20.1644 6.24756 20C6.24756 19.8356 6.28 19.6728 6.34301 19.5209C6.40603 19.3691 6.49838 19.2311 6.61479 19.115L17.8648 7.86501C18.0995 7.63029 18.4179 7.49843 18.7498 7.49843C19.0817 7.49843 19.4001 7.63029 19.6348 7.86501C19.8695 8.09972 20.0014 8.41807 20.0014 8.75001C20.0014 9.08195 19.8695 9.40029 19.6348 9.63501L9.26729 20Z" fill="white"/>
</svg>
