<svg xmlns="http://www.w3.org/2000/svg" width="17" height="23" viewBox="0 0 17 23" fill="none">
  <path d="M3 0.5C1.4832 0.5 0.25 1.7332 0.25 3.25V19.75C0.25 21.2668 1.4832 22.5 3 22.5H14C15.5168 22.5 16.75 21.2668 16.75 19.75V7.375H11.25C10.4895 7.375 9.875 6.76055 9.875 6V0.5H3ZM11.25 0.5V6H16.75L11.25 0.5ZM3 11.5C3 11.1353 3.14487 10.7856 3.40273 10.5277C3.66059 10.2699 4.01033 10.125 4.375 10.125C4.73967 10.125 5.08941 10.2699 5.34727 10.5277C5.60513 10.7856 5.75 11.1353 5.75 11.5C5.75 11.8647 5.60513 12.2144 5.34727 12.4723C5.08941 12.7301 4.73967 12.875 4.375 12.875C4.01033 12.875 3.66059 12.7301 3.40273 12.4723C3.14487 12.2144 3 11.8647 3 11.5ZM9.53125 12.875C9.75898 12.875 9.96953 12.9867 10.0984 13.1715L13.8797 18.6715C14.0258 18.882 14.0387 19.157 13.9227 19.3805C13.8066 19.6039 13.5703 19.75 13.3125 19.75H3.6875C3.43828 19.75 3.21055 19.6168 3.09023 19.402C2.96992 19.1871 2.96992 18.9207 3.09883 18.7102L5.16133 15.2727C5.28594 15.0664 5.50938 14.9375 5.75 14.9375C5.99062 14.9375 6.21406 15.0621 6.33867 15.2727L6.88867 16.1922L8.96406 13.1758C9.09297 12.991 9.30352 12.8793 9.53125 12.8793V12.875Z" fill="#ACACAC"/>
</svg>